# xmcd CD database file
#
# Track frame offsets:
#	150
#	15487
#	45425
#	55517
#	84145
#	124880
#	150690
#	168175
#	199275
#	223167
#
# Disc length: 3077 seconds
#
# Revision: 0
# Processed by: cddbd v1.5.2PL0 Copyright (c) Steve Scherf et al.
# Submitted via: CDex 1.70beta2
#
DISCID=770c030a
DTITLE=Bill Charlap - The American Soul
DYEAR=2005
DGENRE=Jazz
TTITLE0=Who Cares ?
TTITLE1=Somebody Loves Me
TTITLE2=Liza
TTITLE3=How Long Has This Been Going On ?
TTITLE4=A Foggy Day
TTITLE5='S Wonderful
TTITLE6=I Was So Young (You Were So Beautiful)
TTITLE7=Bess, You Is My Woman Now
TTITLE8=Nice Work If You Can Get It
TTITLE9=Soon
EXTD=YEAR: 2005
EXTT0=
EXTT1=
EXTT2=
EXTT3=
EXTT4=
EXTT5=
EXTT6=
EXTT7=
EXTT8=
EXTT9=
PLAYORDER=
